<mxfile host="app.diagrams.net" agent="Mozilla/5.0 (Windows NT 10.0; Win64; x64; rv:131.0) Gecko/20100101 Firefox/131.0" version="24.7.17">
  <diagram name="Страница — 1" id="Up9gNLLzAjlePCXjoPif">
    <mxGraphModel dx="794" dy="422" grid="1" gridSize="10" guides="1" tooltips="1" connect="1" arrows="1" fold="1" page="1" pageScale="1" pageWidth="827" pageHeight="1169" math="0" shadow="0">
      <root>
        <mxCell id="0" />
        <mxCell id="1" parent="0" />
        <mxCell id="IBt4gBRFO_1Cb4TIAhhS-2" value="MyTcpServer" style="swimlane;fontStyle=1;align=center;verticalAlign=top;childLayout=stackLayout;horizontal=1;startSize=26;horizontalStack=0;resizeParent=1;resizeParentMax=0;resizeLast=0;collapsible=1;marginBottom=0;whiteSpace=wrap;html=1;" vertex="1" parent="1">
          <mxGeometry x="60" y="10" width="230" height="160" as="geometry" />
        </mxCell>
        <mxCell id="IBt4gBRFO_1Cb4TIAhhS-3" value="&lt;div&gt;-mTcpServer:QTcpServer*&lt;/div&gt;&lt;div&gt;-clients:Qlist&amp;lt;MyClient&amp;gt;&lt;br&gt;&lt;/div&gt;" style="text;strokeColor=none;fillColor=none;align=left;verticalAlign=top;spacingLeft=4;spacingRight=4;overflow=hidden;rotatable=0;points=[[0,0.5],[1,0.5]];portConstraint=eastwest;whiteSpace=wrap;html=1;" vertex="1" parent="IBt4gBRFO_1Cb4TIAhhS-2">
          <mxGeometry y="26" width="230" height="44" as="geometry" />
        </mxCell>
        <mxCell id="IBt4gBRFO_1Cb4TIAhhS-4" value="" style="line;strokeWidth=1;fillColor=none;align=left;verticalAlign=middle;spacingTop=-1;spacingLeft=3;spacingRight=3;rotatable=0;labelPosition=right;points=[];portConstraint=eastwest;strokeColor=inherit;" vertex="1" parent="IBt4gBRFO_1Cb4TIAhhS-2">
          <mxGeometry y="70" width="230" height="8" as="geometry" />
        </mxCell>
        <mxCell id="IBt4gBRFO_1Cb4TIAhhS-5" value="&lt;div&gt;+ MyTcpServer(QObject*)&lt;/div&gt;&lt;div&gt;+ ~MyTcpServer()&lt;/div&gt;&lt;div&gt;+ slotNewConnection(): void&lt;/div&gt;&lt;div&gt;+ slotServerRead(): void&lt;/div&gt;&lt;div&gt;+ slotOnClientDisconnected(): void&lt;br&gt;&lt;/div&gt;" style="text;strokeColor=none;fillColor=none;align=left;verticalAlign=top;spacingLeft=4;spacingRight=4;overflow=hidden;rotatable=0;points=[[0,0.5],[1,0.5]];portConstraint=eastwest;whiteSpace=wrap;html=1;" vertex="1" parent="IBt4gBRFO_1Cb4TIAhhS-2">
          <mxGeometry y="78" width="230" height="82" as="geometry" />
        </mxCell>
        <mxCell id="IBt4gBRFO_1Cb4TIAhhS-6" value="MyClient" style="swimlane;fontStyle=1;align=center;verticalAlign=top;childLayout=stackLayout;horizontal=1;startSize=26;horizontalStack=0;resizeParent=1;resizeParentMax=0;resizeLast=0;collapsible=1;marginBottom=0;whiteSpace=wrap;html=1;" vertex="1" parent="1">
          <mxGeometry x="460" y="10" width="160" height="160" as="geometry" />
        </mxCell>
        <mxCell id="IBt4gBRFO_1Cb4TIAhhS-7" value="&lt;div&gt;- mTcpSocket: QTcpSocket*&lt;/div&gt;&lt;div&gt;- login: Qstring&lt;/div&gt;&lt;div&gt;- id_connection: int&lt;br&gt;&lt;/div&gt;" style="text;strokeColor=none;fillColor=none;align=left;verticalAlign=top;spacingLeft=4;spacingRight=4;overflow=hidden;rotatable=0;points=[[0,0.5],[1,0.5]];portConstraint=eastwest;whiteSpace=wrap;html=1;" vertex="1" parent="IBt4gBRFO_1Cb4TIAhhS-6">
          <mxGeometry y="26" width="160" height="54" as="geometry" />
        </mxCell>
        <mxCell id="IBt4gBRFO_1Cb4TIAhhS-8" value="" style="line;strokeWidth=1;fillColor=none;align=left;verticalAlign=middle;spacingTop=-1;spacingLeft=3;spacingRight=3;rotatable=0;labelPosition=right;points=[];portConstraint=eastwest;strokeColor=inherit;" vertex="1" parent="IBt4gBRFO_1Cb4TIAhhS-6">
          <mxGeometry y="80" width="160" height="8" as="geometry" />
        </mxCell>
        <mxCell id="IBt4gBRFO_1Cb4TIAhhS-9" value="&lt;div&gt;+ MyClient()&lt;/div&gt;&lt;div&gt;+ ~MyClient()&lt;/div&gt;&lt;div&gt;+ is_auth() : bool&lt;br&gt;&lt;/div&gt;" style="text;strokeColor=none;fillColor=none;align=left;verticalAlign=top;spacingLeft=4;spacingRight=4;overflow=hidden;rotatable=0;points=[[0,0.5],[1,0.5]];portConstraint=eastwest;whiteSpace=wrap;html=1;" vertex="1" parent="IBt4gBRFO_1Cb4TIAhhS-6">
          <mxGeometry y="88" width="160" height="72" as="geometry" />
        </mxCell>
        <mxCell id="IBt4gBRFO_1Cb4TIAhhS-10" value="FunctionsForServer" style="swimlane;fontStyle=1;align=center;verticalAlign=top;childLayout=stackLayout;horizontal=1;startSize=26;horizontalStack=0;resizeParent=1;resizeParentMax=0;resizeLast=0;collapsible=1;marginBottom=0;whiteSpace=wrap;html=1;" vertex="1" parent="1">
          <mxGeometry x="30" y="200" width="310" height="158" as="geometry" />
        </mxCell>
        <mxCell id="IBt4gBRFO_1Cb4TIAhhS-11" value="&lt;div&gt;+ parsing(int, QString): QByteArray&lt;/div&gt;&lt;div&gt;+auth(int, SQtring, QString): QByteArray&lt;/div&gt;&lt;div&gt;+reg(QString, QString, QString): QByteArray&lt;/div&gt;&lt;div&gt;+lookmystat(int): QByteArray&lt;/div&gt;&lt;div&gt;+lookallstat(): QByteArray&lt;/div&gt;&lt;div&gt;......&lt;br&gt;&lt;/div&gt;" style="text;strokeColor=none;fillColor=none;align=left;verticalAlign=top;spacingLeft=4;spacingRight=4;overflow=hidden;rotatable=0;points=[[0,0.5],[1,0.5]];portConstraint=eastwest;whiteSpace=wrap;html=1;" vertex="1" parent="IBt4gBRFO_1Cb4TIAhhS-10">
          <mxGeometry y="26" width="310" height="124" as="geometry" />
        </mxCell>
        <mxCell id="IBt4gBRFO_1Cb4TIAhhS-12" value="" style="line;strokeWidth=1;fillColor=none;align=left;verticalAlign=middle;spacingTop=-1;spacingLeft=3;spacingRight=3;rotatable=0;labelPosition=right;points=[];portConstraint=eastwest;strokeColor=inherit;" vertex="1" parent="IBt4gBRFO_1Cb4TIAhhS-10">
          <mxGeometry y="150" width="310" height="8" as="geometry" />
        </mxCell>
        <mxCell id="IBt4gBRFO_1Cb4TIAhhS-18" value="MyDB" style="swimlane;fontStyle=1;align=center;verticalAlign=top;childLayout=stackLayout;horizontal=1;startSize=26;horizontalStack=0;resizeParent=1;resizeParentMax=0;resizeLast=0;collapsible=1;marginBottom=0;whiteSpace=wrap;html=1;" vertex="1" parent="1">
          <mxGeometry x="460" y="200" width="160" height="86" as="geometry" />
        </mxCell>
        <mxCell id="IBt4gBRFO_1Cb4TIAhhS-19" value="+ field: type" style="text;strokeColor=none;fillColor=none;align=left;verticalAlign=top;spacingLeft=4;spacingRight=4;overflow=hidden;rotatable=0;points=[[0,0.5],[1,0.5]];portConstraint=eastwest;whiteSpace=wrap;html=1;" vertex="1" parent="IBt4gBRFO_1Cb4TIAhhS-18">
          <mxGeometry y="26" width="160" height="26" as="geometry" />
        </mxCell>
        <mxCell id="IBt4gBRFO_1Cb4TIAhhS-20" value="" style="line;strokeWidth=1;fillColor=none;align=left;verticalAlign=middle;spacingTop=-1;spacingLeft=3;spacingRight=3;rotatable=0;labelPosition=right;points=[];portConstraint=eastwest;strokeColor=inherit;" vertex="1" parent="IBt4gBRFO_1Cb4TIAhhS-18">
          <mxGeometry y="52" width="160" height="8" as="geometry" />
        </mxCell>
        <mxCell id="IBt4gBRFO_1Cb4TIAhhS-21" value="+ method(type): type" style="text;strokeColor=none;fillColor=none;align=left;verticalAlign=top;spacingLeft=4;spacingRight=4;overflow=hidden;rotatable=0;points=[[0,0.5],[1,0.5]];portConstraint=eastwest;whiteSpace=wrap;html=1;" vertex="1" parent="IBt4gBRFO_1Cb4TIAhhS-18">
          <mxGeometry y="60" width="160" height="26" as="geometry" />
        </mxCell>
        <mxCell id="IBt4gBRFO_1Cb4TIAhhS-22" value="MyDB_destroyer" style="swimlane;fontStyle=1;align=center;verticalAlign=top;childLayout=stackLayout;horizontal=1;startSize=26;horizontalStack=0;resizeParent=1;resizeParentMax=0;resizeLast=0;collapsible=1;marginBottom=0;whiteSpace=wrap;html=1;" vertex="1" parent="1">
          <mxGeometry x="460" y="302" width="160" height="86" as="geometry" />
        </mxCell>
        <mxCell id="IBt4gBRFO_1Cb4TIAhhS-23" value="+ field: type" style="text;strokeColor=none;fillColor=none;align=left;verticalAlign=top;spacingLeft=4;spacingRight=4;overflow=hidden;rotatable=0;points=[[0,0.5],[1,0.5]];portConstraint=eastwest;whiteSpace=wrap;html=1;" vertex="1" parent="IBt4gBRFO_1Cb4TIAhhS-22">
          <mxGeometry y="26" width="160" height="26" as="geometry" />
        </mxCell>
        <mxCell id="IBt4gBRFO_1Cb4TIAhhS-24" value="" style="line;strokeWidth=1;fillColor=none;align=left;verticalAlign=middle;spacingTop=-1;spacingLeft=3;spacingRight=3;rotatable=0;labelPosition=right;points=[];portConstraint=eastwest;strokeColor=inherit;" vertex="1" parent="IBt4gBRFO_1Cb4TIAhhS-22">
          <mxGeometry y="52" width="160" height="8" as="geometry" />
        </mxCell>
        <mxCell id="IBt4gBRFO_1Cb4TIAhhS-25" value="+ method(type): type" style="text;strokeColor=none;fillColor=none;align=left;verticalAlign=top;spacingLeft=4;spacingRight=4;overflow=hidden;rotatable=0;points=[[0,0.5],[1,0.5]];portConstraint=eastwest;whiteSpace=wrap;html=1;" vertex="1" parent="IBt4gBRFO_1Cb4TIAhhS-22">
          <mxGeometry y="60" width="160" height="26" as="geometry" />
        </mxCell>
        <mxCell id="IBt4gBRFO_1Cb4TIAhhS-29" value="1" style="endArrow=none;html=1;endSize=12;startArrow=diamondThin;startSize=14;startFill=0;edgeStyle=orthogonalEdgeStyle;align=left;verticalAlign=bottom;rounded=0;endFill=0;entryX=-0.006;entryY=0.685;entryDx=0;entryDy=0;entryPerimeter=0;exitX=1.009;exitY=0.886;exitDx=0;exitDy=0;exitPerimeter=0;" edge="1" parent="1" source="IBt4gBRFO_1Cb4TIAhhS-3" target="IBt4gBRFO_1Cb4TIAhhS-7">
          <mxGeometry x="-1" y="3" relative="1" as="geometry">
            <mxPoint x="290" y="70" as="sourcePoint" />
            <mxPoint x="450" y="70" as="targetPoint" />
          </mxGeometry>
        </mxCell>
        <mxCell id="IBt4gBRFO_1Cb4TIAhhS-31" value="" style="endArrow=none;html=1;rounded=0;entryX=0.013;entryY=0.151;entryDx=0;entryDy=0;entryPerimeter=0;exitX=0.987;exitY=0.29;exitDx=0;exitDy=0;exitPerimeter=0;" edge="1" parent="1" source="IBt4gBRFO_1Cb4TIAhhS-11" target="IBt4gBRFO_1Cb4TIAhhS-18">
          <mxGeometry width="50" height="50" relative="1" as="geometry">
            <mxPoint x="370" y="280" as="sourcePoint" />
            <mxPoint x="420" y="230" as="targetPoint" />
          </mxGeometry>
        </mxCell>
        <mxCell id="IBt4gBRFO_1Cb4TIAhhS-32" value="" style="endArrow=none;html=1;rounded=0;entryX=0.013;entryY=0.174;entryDx=0;entryDy=0;entryPerimeter=0;exitX=0.987;exitY=0.621;exitDx=0;exitDy=0;exitPerimeter=0;" edge="1" parent="1" source="IBt4gBRFO_1Cb4TIAhhS-11" target="IBt4gBRFO_1Cb4TIAhhS-22">
          <mxGeometry width="50" height="50" relative="1" as="geometry">
            <mxPoint x="370" y="330" as="sourcePoint" />
            <mxPoint x="440" y="300" as="targetPoint" />
          </mxGeometry>
        </mxCell>
        <mxCell id="IBt4gBRFO_1Cb4TIAhhS-33" value="" style="endArrow=none;html=1;rounded=0;exitX=0.474;exitY=0.013;exitDx=0;exitDy=0;exitPerimeter=0;entryX=0.496;entryY=1.012;entryDx=0;entryDy=0;entryPerimeter=0;" edge="1" parent="1" source="IBt4gBRFO_1Cb4TIAhhS-10" target="IBt4gBRFO_1Cb4TIAhhS-5">
          <mxGeometry width="50" height="50" relative="1" as="geometry">
            <mxPoint x="320" y="210" as="sourcePoint" />
            <mxPoint x="370" y="160" as="targetPoint" />
          </mxGeometry>
        </mxCell>
        <mxCell id="IBt4gBRFO_1Cb4TIAhhS-34" value="1*" style="text;html=1;align=center;verticalAlign=middle;whiteSpace=wrap;rounded=0;" vertex="1" parent="1">
          <mxGeometry x="414" y="40" width="60" height="30" as="geometry" />
        </mxCell>
      </root>
    </mxGraphModel>
  </diagram>
</mxfile>
